P3
3 3
255
95 95 95 198 198 198 82 82 82 
147 147 147 220 220 220 146 146 146 
194 194 194 135 135 135 204 204 204 
