P3
3 3
255
45 18 24 148 92 104 32 7 17 
97 50 61 170 147 154 96 51 63 
144 102 115 85 67 76 154 114 127 
