P3
3 3
255
95 68 74 198 142 154 82 57 67 
147 100 111 220 197 204 146 101 113 
194 152 165 135 117 126 204 164 177 
