P3
3 3
255
145 118 124 248 192 204 132 107 117 
197 150 161 255 247 254 196 151 163 
244 202 215 185 167 176 254 214 227 
