P3
4 4
255
85 85 85 85 85 85 85 85 85 255 255 255 
0 0 0 85 85 85 85 85 85 85 85 85 
170 170 170 0 0 0 85 85 85 85 85 85 
170 170 170 170 170 170 0 0 0 85 85 85 
