P3
5 5
255
105 105 105 225 225 225 235 235 235 180 180 180 111 111 111 
96 96 96 154 154 154 216 216 216 184 184 184 194 194 194 
76 76 76 140 140 140 133 133 133 186 186 186 213 213 213 
115 115 115 124 124 124 119 119 119 209 209 209 216 216 216 
102 102 102 110 110 110 121 121 121 139 139 139 218 218 218 
