P3
5 5
255
49 49 49 130 130 130 148 148 148 107 107 107 57 57 57 
45 45 45 80 80 80 113 113 113 107 107 107 122 122 122 
34 34 34 77 77 77 73 73 73 111 111 111 127 127 127 
60 60 60 82 82 82 76 76 76 133 133 133 127 127 127 
57 57 57 60 60 60 70 70 70 85 85 85 131 131 131 
