P3
5 5
255
12 12 12 7 7 7 31 31 31 15 15 15 23 23 23 
28 28 28 13 13 13 27 27 27 30 30 30 19 19 19 
20 20 20 44 44 44 49 49 49 41 41 41 0 0 0 
41 41 41 56 56 56 46 46 46 28 28 28 0 0 0 
40 40 40 42 42 42 40 40 40 36 36 36 8 8 8 
