P3
5 5
255
58 58 58 141 141 141 158 158 158 116 116 116 66 66 66 
55 55 55 91 91 91 129 129 129 118 118 118 130 130 130 
42 42 42 88 88 88 84 84 84 122 122 122 136 136 136 
70 70 70 89 89 89 83 83 83 142 142 142 137 137 137 
65 65 65 69 69 69 79 79 79 93 93 93 141 141 141 
