P3
# Created by GIMP version 2.10.34 PNM plug-in
5 5
255
105
49
12
225
130
7
235
148
31
180
107
15
111
57
23
96
45
28
154
80
13
216
113
27
184
107
30
194
122
19
76
34
20
140
77
44
133
73
49
186
111
41
213
127
0
115
60
41
124
82
56
119
76
46
209
133
28
216
127
0
102
57
40
110
60
42
121
70
40
139
85
36
218
131
8
